<svg width="1025" height="918" viewBox="0 0 1025 918" fill="none" xmlns="http://www.w3.org/2000/svg">
<g clip-path="url(#clip0)">
<path d="M1022.5 910.667H475C405 910.667 340.834 900.875 282.5 881.292C224.166 861.708 174.167 832.75 132.5 794.417C90.8331 756.083 58.3335 708.792 35 652.542C11.6665 596.292 0 531.5 0 458.167C0 390.666 12.4999 328.792 37.5 272.542C62.5001 216.291 96.8748 167.959 140.625 127.542C184.375 87.1249 236.25 55.8752 296.25 33.7917C356.25 11.7083 421.25 0.666748 491.25 0.666748C561.25 0.666748 625.833 11.7083 685 33.7917C744.167 55.8752 795.208 86.4999 838.125 125.667C881.042 164.834 914.583 211.917 938.75 266.917C962.917 321.917 975 381.916 975 446.917C975 471.917 972.292 496.5 966.875 520.667C961.458 544.834 954.375 567.125 945.625 587.542C936.875 607.959 926.875 626.292 915.625 642.542C904.375 658.792 893.333 671.5 882.5 680.667L1022.5 910.667Z" fill="#1FC79A"/>
<path d="M570.166 382C570.166 363.333 563.333 348 549.666 336C535.999 324 517.499 318 494.166 318C468.833 318 449.166 325 435.166 339C421.166 353 413.166 367.333 411.166 382H570.166ZM769.166 457C769.166 465.666 768.999 474.5 768.666 483.5C768.333 492.5 767.833 500 767.166 506H413.166C413.833 515.333 416.999 523.666 422.666 531C428.333 538.333 435.333 544.666 443.666 550C451.999 555.333 461.333 559.333 471.666 562C481.999 564.666 492.499 566 503.166 566C524.499 566 542.333 562.166 556.666 554.5C570.999 546.833 581.833 538.333 589.166 529L753.166 612C729.833 650 696 680 651.666 702C607.332 724 555.833 735 497.166 735C459.166 735 422.166 729 386.166 717C350.166 705 318.333 687.167 290.666 663.5C262.999 639.833 240.833 610.333 224.166 575C207.499 539.666 199.166 498.667 199.166 452C199.166 408.666 206.833 369.5 222.166 334.5C237.499 299.5 258.333 269.833 284.666 245.5C310.999 221.166 341.999 202.333 377.666 189C413.333 175.666 451.499 169 492.166 169C533.5 169 571.166 176.166 605.166 190.5C639.166 204.833 668.333 224.833 692.666 250.5C716.999 276.167 735.833 306.666 749.166 342C762.499 377.333 769.166 415.666 769.166 457Z" fill="white"/>
</g>
<defs>
<clipPath id="clip0">
<rect width="1025" height="916.667" fill="white" transform="translate(0 0.666748)"/>
</clipPath>
</defs>
</svg>
